<svg width="65" height="60" viewBox="0 0 65 60" fill="none" xmlns="http://www.w3.org/2000/svg">
<g clip-path="url(#clip0_133_609)">
<path fill-rule="evenodd" clip-rule="evenodd" d="M7.78042 24.771C8.43936 25.5212 9.07427 26.2447 9.68671 26.9427C25.4866 44.9482 26.3611 45.9451 39.7716 47.7019L54.4225 37.8917L56.3858 39.5363C57.3596 40.352 57.2483 41.8595 56.1646 42.5292L28.3625 59.7097C27.5712 60.199 26.5346 60.0507 25.9187 59.3605L0.638425 31.0348C-0.171325 30.1275 0.0975859 28.7165 1.18687 28.1571L7.78042 24.771Z" fill="url(#paint0_linear_133_609)"/>
<path d="M30.7212 1.45786L5.88326 14.7263C4.81506 15.2969 4.57254 16.7037 5.37132 17.6032C26.1823 41.0389 25.4288 41.9702 39.3421 43.7888L62.6923 28.1877C63.5365 27.6237 63.2705 26.276 62.3038 25.9527C51.7126 22.411 40.5262 9.51738 35.2418 2.47875C34.197 1.08705 32.269 0.631066 30.7212 1.45786Z" stroke="url(#paint1_linear_133_609)" stroke-width="2"/>
<path d="M39.152 43.0435C33.6403 43.2298 26.4181 39.8758 24.5175 37.4534C26.0201 37.7594 27.9561 36.5445 30.0529 35.2741C32.0499 34.0642 34.2201 36.4624 34.7641 38.7015C35.2167 40.5641 36.4843 42.2966 39.152 43.0435Z" fill="url(#paint2_linear_133_609)"/>
</g>
<defs>
<linearGradient id="paint0_linear_133_609" x1="28.6099" y1="24.771" x2="28.6099" y2="59.997" gradientUnits="userSpaceOnUse">
<stop stop-color="#0B4196"/>
<stop offset="1" stop-color="#76AAFF"/>
</linearGradient>
<linearGradient id="paint1_linear_133_609" x1="34.4006" y1="6.10084e-07" x2="34.4006" y2="43.7888" gradientUnits="userSpaceOnUse">
<stop stop-color="#80ACF4"/>
<stop offset="1" stop-color="#0B4196"/>
</linearGradient>
<linearGradient id="paint2_linear_133_609" x1="32.0249" y1="35.0311" x2="30.0974" y2="40.2735" gradientUnits="userSpaceOnUse">
<stop stop-color="#4A98FF"/>
<stop offset="1" stop-color="#004AC0"/>
</linearGradient>
<clipPath id="clip0_133_609">
<rect width="65" height="60" fill="white"/>
</clipPath>
</defs>
</svg>
