<svg width="199" height="31" viewBox="0 0 199 31" fill="none" xmlns="http://www.w3.org/2000/svg">
<path d="M11.6541 30.64C9.4674 30.64 7.56073 30.2267 5.93407 29.4C4.3074 28.5733 3.01407 27.44 2.05407 26C1.12073 24.5333 0.574066 22.84 0.414066 20.92L4.01407 20.68C4.20073 22.0933 4.61407 23.2933 5.25407 24.28C5.89407 25.2667 6.7474 26.0133 7.81407 26.52C8.9074 27.0267 10.2141 27.28 11.7341 27.28C13.0674 27.28 14.2007 27.1067 15.1341 26.76C16.0674 26.4133 16.7741 25.9067 17.2541 25.24C17.7607 24.5733 18.0141 23.76 18.0141 22.8C18.0141 21.92 17.8007 21.1467 17.3741 20.48C16.9741 19.7867 16.1874 19.16 15.0141 18.6C13.8674 18.0133 12.1607 17.44 9.89407 16.88C7.7074 16.32 5.96073 15.7067 4.65407 15.04C3.37407 14.3733 2.44073 13.56 1.85407 12.6C1.29407 11.64 1.01407 10.4533 1.01407 9.04C1.01407 7.44 1.3874 6.04 2.13407 4.84C2.9074 3.61333 4.00073 2.66667 5.41407 2C6.8274 1.30667 8.5074 0.96 10.4541 0.96C12.5341 0.96 14.3207 1.36 15.8141 2.16C17.3074 2.93333 18.4941 4 19.3741 5.36C20.2541 6.72 20.8007 8.26667 21.0141 10L17.4141 10.24C17.2541 9.09333 16.8807 8.08 16.2941 7.2C15.7341 6.29333 14.9607 5.58667 13.9741 5.08C12.9874 4.57333 11.7874 4.32 10.3741 4.32C8.61407 4.32 7.21407 4.74667 6.17407 5.6C5.13407 6.42666 4.61407 7.52 4.61407 8.88C4.61407 9.76 4.81407 10.4933 5.21407 11.08C5.64073 11.64 6.3874 12.1467 7.45407 12.6C8.52073 13.0267 10.0541 13.4933 12.0541 14C14.4274 14.5867 16.3074 15.2933 17.6941 16.12C19.1074 16.92 20.1074 17.8533 20.6941 18.92C21.3074 19.9867 21.6141 21.2 21.6141 22.56C21.6141 24.2133 21.1874 25.6533 20.3341 26.88C19.4807 28.08 18.3074 29.0133 16.8141 29.68C15.3207 30.32 13.6007 30.64 11.6541 30.64ZM29.56 30.48C27.4533 30.48 25.76 29.7733 24.48 28.36C23.2267 26.92 22.6 24.9467 22.6 22.44V8.8H25.96V21.52C25.96 23.5733 26.32 25.0933 27.04 26.08C27.7867 27.04 28.92 27.52 30.44 27.52C32.12 27.52 33.44 26.9867 34.4 25.92C35.36 24.8267 35.84 23.3333 35.84 21.44V8.8H39.2V30H36V24.76L36.52 25.04C36.0933 26.7733 35.28 28.12 34.08 29.08C32.88 30.0133 31.3733 30.48 29.56 30.48ZM41.2078 30V8.8H44.2878L44.4078 14.16L43.9278 14C44.1678 12.8267 44.5811 11.8267 45.1678 11C45.7811 10.1467 46.5278 9.49333 47.4078 9.04C48.2878 8.56 49.2612 8.32 50.3278 8.32C52.1678 8.32 53.6611 8.82667 54.8078 9.84C55.9812 10.8533 56.7145 12.2667 57.0078 14.08L56.3678 14.04C56.5812 12.8133 56.9678 11.7867 57.5278 10.96C58.1145 10.1067 58.8612 9.45333 59.7678 9C60.6745 8.54666 61.7145 8.32 62.8878 8.32C64.4078 8.32 65.6878 8.64 66.7278 9.28C67.7678 9.89333 68.5545 10.8 69.0878 12C69.6212 13.2 69.8878 14.6533 69.8878 16.36V30H66.5278V17.08C66.5278 15.16 66.1545 13.72 65.4078 12.76C64.6612 11.7733 63.5545 11.28 62.0878 11.28C61.1012 11.28 60.2345 11.52 59.4878 12C58.7678 12.48 58.2078 13.1733 57.8078 14.08C57.4078 14.96 57.2078 16.04 57.2078 17.32V30H53.8478V17.32C53.8478 15.4267 53.5145 13.9467 52.8478 12.88C52.1812 11.8133 51.0612 11.28 49.4878 11.28C48.5011 11.28 47.6345 11.52 46.8878 12C46.1678 12.48 45.5945 13.1733 45.1678 14.08C44.7678 14.9867 44.5678 16.0667 44.5678 17.32V30H41.2078ZM71.1047 30V8.8H74.1847L74.3047 14.16L73.8247 14C74.0647 12.8267 74.478 11.8267 75.0647 11C75.678 10.1467 76.4247 9.49333 77.3047 9.04C78.1847 8.56 79.158 8.32 80.2247 8.32C82.0647 8.32 83.558 8.82667 84.7047 9.84C85.878 10.8533 86.6114 12.2667 86.9047 14.08L86.2647 14.04C86.478 12.8133 86.8647 11.7867 87.4247 10.96C88.0114 10.1067 88.758 9.45333 89.6647 9C90.5714 8.54666 91.6114 8.32 92.7847 8.32C94.3047 8.32 95.5847 8.64 96.6247 9.28C97.6647 9.89333 98.4514 10.8 98.9847 12C99.518 13.2 99.7847 14.6533 99.7847 16.36V30H96.4247V17.08C96.4247 15.16 96.0514 13.72 95.3047 12.76C94.558 11.7733 93.4514 11.28 91.9847 11.28C90.998 11.28 90.1314 11.52 89.3847 12C88.6647 12.48 88.1047 13.1733 87.7047 14.08C87.3047 14.96 87.1047 16.04 87.1047 17.32V30H83.7447V17.32C83.7447 15.4267 83.4114 13.9467 82.7447 12.88C82.078 11.8133 80.958 11.28 79.3847 11.28C78.398 11.28 77.5314 11.52 76.7847 12C76.0647 12.48 75.4914 13.1733 75.0647 14.08C74.6647 14.9867 74.4647 16.0667 74.4647 17.32V30H71.1047ZM101.392 30V8.8H104.752V30H101.392ZM101.312 5.48V1.56H104.832V5.48H101.312ZM112.916 30C110.996 30 109.57 29.56 108.636 28.68C107.73 27.8 107.276 26.4267 107.276 24.56V3.84H110.636V24.48C110.636 25.44 110.85 26.1067 111.276 26.48C111.703 26.8533 112.356 27.04 113.236 27.04H116.276V30H112.916ZM104.156 11.76V8.8H116.276V11.76H104.156ZM116.18 30V1.6H125.98C130.594 1.6 134.14 2.84 136.62 5.32C139.1 7.77333 140.34 11.28 140.34 15.84C140.34 20.3733 139.114 23.8667 136.66 26.32C134.234 28.7733 130.754 30 126.22 30H116.18ZM122.26 24.88H125.98C128.727 24.88 130.754 24.1467 132.06 22.68C133.394 21.1867 134.06 18.8933 134.06 15.8C134.06 12.7067 133.394 10.4267 132.06 8.96C130.754 7.46667 128.727 6.72 125.98 6.72H122.26V24.88ZM150.243 30.48C148.056 30.48 146.149 30.0267 144.523 29.12C142.896 28.1867 141.629 26.88 140.723 25.2C139.816 23.52 139.363 21.5467 139.363 19.28C139.363 17.0133 139.816 15.0533 140.723 13.4C141.629 11.72 142.896 10.4133 144.523 9.48C146.149 8.54667 148.056 8.08 150.243 8.08C152.429 8.08 154.336 8.54667 155.963 9.48C157.589 10.4133 158.856 11.72 159.763 13.4C160.669 15.0533 161.123 17.0133 161.123 19.28C161.123 21.5467 160.669 23.52 159.763 25.2C158.856 26.88 157.589 28.1867 155.963 29.12C154.336 30.0267 152.429 30.48 150.243 30.48ZM150.243 25.88C151.736 25.88 152.896 25.3067 153.723 24.16C154.549 22.9867 154.963 21.36 154.963 19.28C154.963 17.2 154.549 15.5867 153.723 14.44C152.896 13.2667 151.736 12.68 150.243 12.68C148.749 12.68 147.589 13.2667 146.763 14.44C145.936 15.5867 145.523 17.2 145.523 19.28C145.523 21.36 145.936 22.9867 146.763 24.16C147.589 25.3067 148.749 25.88 150.243 25.88ZM170.179 30.48C167.992 30.48 166.085 30.0267 164.459 29.12C162.832 28.1867 161.565 26.88 160.659 25.2C159.752 23.52 159.299 21.5467 159.299 19.28C159.299 17.0133 159.752 15.0533 160.659 13.4C161.565 11.72 162.832 10.4133 164.459 9.48C166.085 8.54667 167.992 8.08 170.179 8.08C172.072 8.08 173.765 8.41333 175.259 9.08C176.779 9.74667 178.005 10.7067 178.939 11.96C179.872 13.2133 180.445 14.72 180.659 16.48L174.459 16.76C174.272 15.4267 173.792 14.4267 173.019 13.76C172.272 13.0667 171.325 12.72 170.179 12.72C168.685 12.72 167.525 13.2933 166.699 14.44C165.872 15.5867 165.459 17.2 165.459 19.28C165.459 21.36 165.872 22.9867 166.699 24.16C167.525 25.3067 168.685 25.88 170.179 25.88C171.325 25.88 172.285 25.5333 173.059 24.84C173.832 24.12 174.299 23.04 174.459 21.6L180.659 21.84C180.472 23.6 179.912 25.1333 178.979 26.44C178.072 27.72 176.859 28.72 175.339 29.44C173.845 30.1333 172.125 30.48 170.179 30.48ZM188.734 30.48C186.521 30.48 184.668 30.1733 183.174 29.56C181.681 28.92 180.534 28.0667 179.734 27C178.961 25.9067 178.521 24.6533 178.414 23.24L184.494 23.04C184.681 24.0533 185.108 24.84 185.774 25.4C186.441 25.96 187.428 26.24 188.734 26.24C189.801 26.24 190.628 26.0667 191.214 25.72C191.828 25.3733 192.134 24.84 192.134 24.12C192.134 23.6667 192.028 23.2933 191.814 23C191.601 22.68 191.174 22.4133 190.534 22.2C189.921 21.96 189.001 21.7467 187.774 21.56C185.508 21.16 183.734 20.6933 182.454 20.16C181.174 19.6267 180.268 18.9333 179.734 18.08C179.201 17.2267 178.934 16.1867 178.934 14.96C178.934 12.9067 179.721 11.2533 181.294 10C182.894 8.72 185.281 8.08 188.454 8.08C190.481 8.08 192.174 8.4 193.534 9.04C194.921 9.68 195.988 10.56 196.734 11.68C197.508 12.7733 197.988 14.0267 198.174 15.44L192.134 15.68C192.054 14.9867 191.841 14.4 191.494 13.92C191.174 13.4133 190.761 13.0267 190.254 12.76C189.748 12.4667 189.134 12.32 188.414 12.32C187.348 12.32 186.521 12.5467 185.934 13C185.374 13.4267 185.094 14 185.094 14.72C185.094 15.2533 185.214 15.6933 185.454 16.04C185.721 16.36 186.148 16.6267 186.734 16.84C187.321 17.0533 188.108 17.2267 189.094 17.36C191.388 17.68 193.201 18.1333 194.534 18.72C195.894 19.28 196.868 19.9867 197.454 20.84C198.041 21.6933 198.334 22.7467 198.334 24C198.334 25.3867 197.934 26.56 197.134 27.52C196.334 28.48 195.214 29.2133 193.774 29.72C192.361 30.2267 190.681 30.48 188.734 30.48Z" fill="#295FB4"/>
</svg>
