<svg width="12" height="16" viewBox="0 0 12 16" fill="none" xmlns="http://www.w3.org/2000/svg">
<path d="M1.5 16C1.0875 16 0.734375 15.8531 0.440625 15.5594C0.146875 15.2656 0 14.9125 0 14.5V7C0 6.5875 0.146875 6.23438 0.440625 5.94063C0.734375 5.64688 1.0875 5.5 1.5 5.5H2.25V4C2.25 2.9625 2.61563 2.07813 3.34688 1.34688C4.07812 0.615625 4.9625 0.25 6 0.25C7.0375 0.25 7.92188 0.615625 8.65313 1.34688C9.38438 2.07813 9.75 2.9625 9.75 4V5.5H10.5C10.9125 5.5 11.2656 5.64688 11.5594 5.94063C11.8531 6.23438 12 6.5875 12 7V14.5C12 14.9125 11.8531 15.2656 11.5594 15.5594C11.2656 15.8531 10.9125 16 10.5 16H1.5ZM1.5 14.5H10.5V7H1.5V14.5ZM6 12.25C6.4125 12.25 6.76563 12.1031 7.05938 11.8094C7.35313 11.5156 7.5 11.1625 7.5 10.75C7.5 10.3375 7.35313 9.98438 7.05938 9.69063C6.76563 9.39688 6.4125 9.25 6 9.25C5.5875 9.25 5.23438 9.39688 4.94063 9.69063C4.64688 9.98438 4.5 10.3375 4.5 10.75C4.5 11.1625 4.64688 11.5156 4.94063 11.8094C5.23438 12.1031 5.5875 12.25 6 12.25ZM3.75 5.5H8.25V4C8.25 3.375 8.03125 2.84375 7.59375 2.40625C7.15625 1.96875 6.625 1.75 6 1.75C5.375 1.75 4.84375 1.96875 4.40625 2.40625C3.96875 2.84375 3.75 3.375 3.75 4V5.5Z" fill="#71717A"/>
</svg>
