<svg width="12" height="14" viewBox="0 0 12 14" fill="none" xmlns="http://www.w3.org/2000/svg">
<path d="M2.25 13.75C1.8375 13.75 1.48438 13.6031 1.19063 13.3094C0.896875 13.0156 0.75 12.6625 0.75 12.25V2.5C0.5375 2.5 0.359375 2.42813 0.215625 2.28438C0.071875 2.14063 0 1.9625 0 1.75C0 1.5375 0.071875 1.35938 0.215625 1.21563C0.359375 1.07188 0.5375 1 0.75 1H3.75C3.75 0.7875 3.82188 0.609375 3.96563 0.465625C4.10938 0.321875 4.2875 0.25 4.5 0.25H7.5C7.7125 0.25 7.89063 0.321875 8.03438 0.465625C8.17813 0.609375 8.25 0.7875 8.25 1H11.25C11.4625 1 11.6406 1.07188 11.7844 1.21563C11.9281 1.35938 12 1.5375 12 1.75C12 1.9625 11.9281 2.14063 11.7844 2.28438C11.6406 2.42813 11.4625 2.5 11.25 2.5V12.25C11.25 12.6625 11.1031 13.0156 10.8094 13.3094C10.5156 13.6031 10.1625 13.75 9.75 13.75H2.25ZM4.5 10.75C4.7125 10.75 4.89062 10.6781 5.03438 10.5344C5.17813 10.3906 5.25 10.2125 5.25 10V4.75C5.25 4.5375 5.17813 4.35938 5.03438 4.21563C4.89062 4.07188 4.7125 4 4.5 4C4.2875 4 4.10938 4.07188 3.96563 4.21563C3.82188 4.35938 3.75 4.5375 3.75 4.75V10C3.75 10.2125 3.82188 10.3906 3.96563 10.5344C4.10938 10.6781 4.2875 10.75 4.5 10.75ZM7.5 10.75C7.7125 10.75 7.89063 10.6781 8.03438 10.5344C8.17813 10.3906 8.25 10.2125 8.25 10V4.75C8.25 4.5375 8.17813 4.35938 8.03438 4.21563C7.89063 4.07188 7.7125 4 7.5 4C7.2875 4 7.10938 4.07188 6.96563 4.21563C6.82188 4.35938 6.75 4.5375 6.75 4.75V10C6.75 10.2125 6.82188 10.3906 6.96563 10.5344C7.10938 10.6781 7.2875 10.75 7.5 10.75Z" fill="white"/>
</svg>
